# xmcd
#
# Track frame offsets: 
#        150
#        17377
#        28344
#        41421
#
# Disc length: 772 seconds
#
# Revision: 0
# Processed by: cddbd v1.5.2PL0 Copyright (c) Steve Scherf et al.
# Submitted via: ExactAudioCopy v1.0b3
#
DISCID=25030204
DTITLE=Pete 'Big Dog' Fetters - Thunderbird Wine
DYEAR=2000
DGENRE=Blues
TTITLE0=Thunderbird Wine
TTITLE1=Big Dog Boogie
TTITLE2=South From Detroit City
TTITLE3=Shake'em On Down
EXTD=
EXTT0=
EXTT1=
EXTT2=
EXTT3=
PLAYORDER=
